<?xml version="1.0" encoding="UTF-8"?>
<svg version="1.1" xmlns="http://www.w3.org/2000/svg" width="64" height="64">
<path d="M0 0 C2.42716825 1.1608196 4.50786073 2.39988761 6.66796875 3.99609375 C7.69921875 4.71796875 8.73046875 5.43984375 9.79296875 6.18359375 C10.72109375 7.08078125 10.72109375 7.08078125 11.66796875 7.99609375 C11.66796875 8.65609375 11.66796875 9.31609375 11.66796875 9.99609375 C12.65796875 10.32609375 13.64796875 10.65609375 14.66796875 10.99609375 C15.80078125 12.703125 15.80078125 12.703125 16.79296875 14.80859375 C17.12554687 15.49566406 17.458125 16.18273437 17.80078125 16.890625 C20.97645939 24.60094264 21.15052613 35.19260783 18.69140625 43.16015625 C17.49685766 45.58589603 16.20755621 47.77622346 14.66796875 49.99609375 C13.80171875 51.35734375 13.80171875 51.35734375 12.91796875 52.74609375 C9.58659121 56.07747129 5.77335409 58.68978654 1.66796875 60.99609375 C1.00796875 60.99609375 0.34796875 60.99609375 -0.33203125 60.99609375 C-0.82703125 61.98609375 -0.82703125 61.98609375 -1.33203125 62.99609375 C-23.1667611 64.02903221 -23.1667611 64.02903221 -31.33203125 57.99609375 C-32.28078125 57.33609375 -33.22953125 56.67609375 -34.20703125 55.99609375 C-36.52778812 53.81185199 -38.48581297 51.59447504 -40.33203125 48.99609375 C-40.33203125 48.33609375 -40.33203125 47.67609375 -40.33203125 46.99609375 C-40.99203125 46.66609375 -41.65203125 46.33609375 -42.33203125 45.99609375 C-45.80896389 38.02760756 -45.86870721 27.0469211 -43.3515625 18.7734375 C-34.69290876 1.10978388 -18.71259531 -5.63790972 0 0 Z M-30.70703125 15.1171875 C-35.29213815 20.41871735 -36.63151374 27.1379447 -36.33203125 33.99609375 C-34.96099879 41.01539372 -32.29871906 46.22403043 -26.6015625 50.62109375 C-20.60589382 54.25358149 -14.43360403 55.72552393 -7.4921875 54.5625 C-0.44558061 52.71483635 4.81993079 49.25811825 8.66796875 42.99609375 C12.09551647 35.4404776 12.30792265 28.7230197 9.60546875 20.93359375 C9.29609375 20.29421875 8.98671875 19.65484375 8.66796875 18.99609375 C8.00796875 18.99609375 7.34796875 18.99609375 6.66796875 18.99609375 C6.57644531 18.40054687 6.48492187 17.805 6.390625 17.19140625 C5.04042555 13.08971927 1.2621457 11.10666398 -2.33203125 8.99609375 C-12.74426486 5.01880812 -22.82147157 7.50189902 -30.70703125 15.1171875 Z " fill="#6F4EFF" transform="translate(44.33203125,1.00390625)"/>
<path d="M0 0 C0.33 0.66 0.66 1.32 1 2 C2.051875 2.103125 3.10375 2.20625 4.1875 2.3125 C8.63277769 3.11410745 11.17096253 4.57580479 14 8 C17.73983892 13.97447951 18.44142968 19.0474826 18 26 C17.34 26 16.68 26 16 26 C16.495 27.485 16.495 27.485 17 29 C11.16901408 34.99295775 11.16901408 34.99295775 8 37 C7.01 37 6.02 37 5 37 C4.67 37.66 4.34 38.32 4 39 C-2.46788341 39.41284362 -8.6744746 38.68680236 -13.87109375 34.48828125 C-17.59204361 30.51748344 -18.77946473 27.40311415 -19 22 C-19.99 21.67 -20.98 21.34 -22 21 C-21.34 21 -20.68 21 -20 21 C-19.91363281 20.34773438 -19.82726562 19.69546875 -19.73828125 19.0234375 C-18.74483775 12.84403668 -17.61345874 9.29890474 -13 5 C-8.85242273 2.47538775 -4.65915878 1.21138128 0 0 Z M-9 13 C-11.09245174 17.28001493 -11.38714398 20.44224122 -10 25 C-7.28592966 28.23937427 -5.44357882 29.87168188 -1.1875 30.25 C2.495369 29.96114753 4.1670461 29.36079492 7 27 C9.09245174 22.71998507 9.38714398 19.55775878 8 15 C5.28592966 11.76062573 3.44357882 10.12831812 -0.8125 9.75 C-4.495369 10.03885247 -6.1670461 10.63920508 -9 13 Z " fill="#6E4EFE" transform="translate(33,12)"/>
<path d="M0 0 C2 1 2 1 2 1 Z " fill="#6F4EFF" transform="translate(11,59)"/>
<path d="M0 0 C2 1 2 1 2 1 Z " fill="#6F4EFF" transform="translate(37,53)"/>
<path d="" fill="#6F4EFF" transform="translate(0,0)"/>
<path d="" fill="#6F4EFF" transform="translate(0,0)"/>
<path d="" fill="#6F4EFF" transform="translate(0,0)"/>
<path d="" fill="#6F4EFF" transform="translate(0,0)"/>
<path d="" fill="#6F4EFF" transform="translate(0,0)"/>
<path d="" fill="#6F4EFF" transform="translate(0,0)"/>
<path d="" fill="#6F4EFF" transform="translate(0,0)"/>
<path d="" fill="#6F4EFF" transform="translate(0,0)"/>
<path d="" fill="#6F4EFF" transform="translate(0,0)"/>
<path d="" fill="#6F4EFF" transform="translate(0,0)"/>
<path d="" fill="#6F4EFF" transform="translate(0,0)"/>
<path d="" fill="#6F4EFF" transform="translate(0,0)"/>
<path d="" fill="#6F4EFF" transform="translate(0,0)"/>
<path d="" fill="#6F4EFF" transform="translate(0,0)"/>
<path d="" fill="#6F4EFF" transform="translate(0,0)"/>
<path d="" fill="#6F4EFF" transform="translate(0,0)"/>
<path d="" fill="#6F4EFF" transform="translate(0,0)"/>
<path d="" fill="#6F4EFF" transform="translate(0,0)"/>
<path d="" fill="#6F4EFF" transform="translate(0,0)"/>
<path d="" fill="#6F4EFF" transform="translate(0,0)"/>
<path d="" fill="#6F4EFF" transform="translate(0,0)"/>
<path d="" fill="#6F4EFF" transform="translate(0,0)"/>
<path d="" fill="#6F4EFF" transform="translate(0,0)"/>
<path d="" fill="#6F4EFF" transform="translate(0,0)"/>
<path d="" fill="#6F4EFF" transform="translate(0,0)"/>
<path d="" fill="#6F4EFF" transform="translate(0,0)"/>
<path d="" fill="#6F4EFF" transform="translate(0,0)"/>
<path d="" fill="#6F4EFF" transform="translate(0,0)"/>
<path d="" fill="#6F4EFF" transform="translate(0,0)"/>
<path d="" fill="#6F4EFF" transform="translate(0,0)"/>
<path d="" fill="#6F4EFF" transform="translate(0,0)"/>
</svg>
