<?xml version="1.0" encoding="UTF-8"?>
<svg version="1.1" xmlns="http://www.w3.org/2000/svg" width="2307" height="824">
<path d="M0 0 C0.66257812 0.41958984 1.32515625 0.83917969 2.0078125 1.27148438 C17.16311584 10.95403929 31.70203735 21.66654767 45.23681641 33.5078125 C46.57190854 34.63770493 47.93326719 35.73665468 49.30615234 36.8203125 C56.9564702 42.88766041 63.85045272 49.54352101 70.72558594 56.46484375 C72.62215939 58.37214332 74.52920305 60.26850059 76.4375 62.1640625 C83.42079896 69.13981631 89.8787221 76.24889296 96 84 C96.93433419 85.10220583 97.87573074 86.19851774 98.828125 87.28515625 C127.4158539 120.06882601 149.01319919 159.76327226 165 200 C165.5566333 201.39702148 165.5566333 201.39702148 166.12451172 202.82226562 C179.59697458 237.08418592 187.04287632 273.48385598 191 310 C191.1045752 310.95277832 191.20915039 311.90555664 191.31689453 312.88720703 C192.39841977 324.50925018 192.24390007 336.21347979 192.25 347.875 C192.25101212 349.61259079 192.25101212 349.61259079 192.25204468 351.38528442 C192.23505673 369.77529711 191.63045427 387.77323026 189 406 C188.83371094 407.17820312 188.66742187 408.35640625 188.49609375 409.5703125 C182.8032131 448.61925683 171.53771848 486.19236402 155 522 C154.27662508 523.60774976 153.55394982 525.21581453 152.83203125 526.82421875 C136.54051802 562.64917074 113.73748762 595.46303031 87.265625 624.48828125 C85.99419287 625.89781722 84.72982753 627.31408589 83.49194336 628.75317383 C78.9003953 634.08633707 74.05024662 639.1000078 69.0625 644.0625 C67.92264648 645.2081543 67.92264648 645.2081543 66.75976562 646.37695312 C62.00316534 651.12542941 57.1072503 655.6328513 52 660 C51.03578125 660.845625 50.0715625 661.69125 49.078125 662.5625 C29.58416668 679.36392264 8.36275957 694.26523722 -14 707 C-15.26312012 707.72074707 -15.26312012 707.72074707 -16.55175781 708.45605469 C-40.03108985 721.74858658 -64.40978788 732.4685277 -90 741 C-90.93166992 741.31275879 -91.86333984 741.62551758 -92.82324219 741.94775391 C-114.01787195 748.97142496 -135.92671484 753.98729557 -158 757.3125 C-158.97485352 757.45969482 -159.94970703 757.60688965 -160.95410156 757.75854492 C-180.44899623 760.48495859 -199.89612821 761.37851942 -219.5625 761.3125 C-221.2650444 761.30976578 -221.2650444 761.30976578 -223.00198364 761.30697632 C-240.85194075 761.2588759 -258.31984257 760.62655943 -276 758 C-277.16257324 757.83371094 -278.32514648 757.66742187 -279.52294922 757.49609375 C-340.42747858 748.56993122 -400.46309206 726.46823778 -451 691 C-451.53995605 690.62311035 -452.07991211 690.2462207 -452.63623047 689.85791016 C-466.35367698 680.26380529 -479.44668603 670.07731694 -492 659 C-492.72904541 658.35998047 -493.45809082 657.71996094 -494.20922852 657.06054688 C-500.66626686 651.32902574 -506.83870423 645.34752103 -512.94116211 639.24414062 C-514.55890192 637.6285932 -516.18450636 636.02124966 -517.81054688 634.4140625 C-524.33843426 627.92083229 -530.27912798 621.22422724 -536 614 C-537.55925805 612.16390858 -539.12103933 610.32995036 -540.6875 608.5 C-598.73935064 538.74777637 -629.2825527 449.1197883 -632 359 C-632.02336426 358.26233398 -632.04672852 357.52466797 -632.07080078 356.76464844 C-633.11589746 318.13998298 -627.87844902 279.27969141 -618 242 C-617.69723145 240.8562793 -617.39446289 239.71255859 -617.08251953 238.53417969 C-599.86754893 174.759503 -566.35602273 117.55584548 -522 69 C-521.12085938 68.01644531 -520.24171875 67.03289062 -519.3359375 66.01953125 C-511.36624346 57.16143023 -502.83565545 48.98921822 -494 41 C-493.42024414 40.4755127 -492.84048828 39.95102539 -492.24316406 39.41064453 C-469.61559493 19.11452079 -443.97593787 1.87427106 -417.35644531 -12.70654297 C-415.1940651 -13.89347732 -413.04549117 -15.10205455 -410.8984375 -16.31640625 C-322.87360822 -65.32282946 -213.55630156 -74.39613944 0 0 Z M-419 43 C-419.73138184 43.48065918 -420.46276367 43.96131836 -421.21630859 44.45654297 C-443.39322979 59.12135481 -463.54458363 76.52544329 -482.375 95.25 C-482.93372803 95.80405518 -483.49245605 96.35811035 -484.06811523 96.92895508 C-498.28661028 111.20238858 -510.75753105 127.31874184 -522 144 C-522.47034668 144.69593262 -522.94069336 145.39186523 -523.42529297 146.10888672 C-530.5680653 156.74291402 -537.00701988 167.68094501 -543 179 C-543.43812012 179.82032715 -543.87624023 180.6406543 -544.32763672 181.48583984 C-588.41873362 264.63494841 -596.90174934 364.64897574 -569.93359375 454.55517578 C-564.47208646 472.23333434 -557.92120518 489.26526283 -550 506 C-549.58250488 506.88864746 -549.16500977 507.77729492 -548.73486328 508.69287109 C-537.48614747 532.45305027 -523.33081869 554.43329195 -507 575 C-506.26136719 575.93328125 -505.52273438 576.8665625 -504.76171875 577.828125 C-499.91980076 583.8482717 -494.81157162 589.5643959 -489.55859375 595.22265625 C-487.4704719 597.48930455 -485.43993504 599.78332891 -483.4375 602.125 C-476.86969435 609.68269023 -469.61225276 616.51404995 -462 623 C-460.98352323 623.89095625 -459.96797582 624.78297339 -458.953125 625.67578125 C-439.30470039 642.87383809 -417.83084884 657.36747326 -395 670 C-394.17661133 670.45761719 -393.35322266 670.91523437 -392.50488281 671.38671875 C-341.93743661 699.27791735 -285.4463637 712.76490346 -228 715 C-227.17081055 715.03464355 -226.34162109 715.06928711 -225.48730469 715.10498047 C-172.15528604 717.05379005 -118.60187262 704.15233732 -70 683 C-68.78763672 682.47672119 -68.78763672 682.47672119 -67.55078125 681.94287109 C-42.3859314 670.96943767 -18.5156744 656.0070848 3 639 C3.60618164 638.52240234 4.21236328 638.04480469 4.83691406 637.55273438 C18.27165528 626.9293004 30.58646217 615.48753835 42.75 603.4375 C43.62551514 602.57511719 44.50103027 601.71273437 45.40307617 600.82421875 C51.370751 594.86388146 56.75644832 588.60135962 62 582 C63.02529653 580.74571956 64.05236999 579.49288734 65.08203125 578.2421875 C83.03953351 556.19029765 97.23153531 532.37153477 110 507 C110.37608398 506.26249512 110.75216797 505.52499023 111.13964844 504.76513672 C152.42719794 423.37245111 156.07478986 322.34918356 128.109375 236.29980469 C114.27383221 195.14637238 94.22291859 156.8753129 67 123 C66.26652344 122.07445312 65.53304687 121.14890625 64.77734375 120.1953125 C59.57939995 113.72309324 54.0551135 107.59256148 48.40283203 101.52050781 C47.01254219 100.01359428 45.64236717 98.49074754 44.27734375 96.9609375 C38.3999824 90.39523653 32.23579839 84.27866284 25.62744141 78.44042969 C23.93394836 76.94153845 22.25443382 75.42781225 20.57421875 73.9140625 C0.91603429 56.37472427 -20.99868406 41.7563774 -44 29 C-45.31484375 28.26861816 -45.31484375 28.26861816 -46.65625 27.52246094 C-142.952317 -25.57181451 -262.37381223 -30.00306751 -419 43 Z " fill="#5F3CD8" transform="translate(632,63)"/>
<path d="M0 0 C1.06879395 0.17160645 2.13758789 0.34321289 3.23876953 0.52001953 C76.13267056 12.60241847 149.41344839 50.57828257 195.84375 109.2890625 C198.05606347 112.0704856 200.36608462 114.74676854 202.6875 117.4375 C218.21923275 136.12373971 230.68276782 157.14081278 241.07763672 179.06054688 C241.68822846 180.34443804 242.30695282 181.62449574 242.93408203 182.90039062 C279.60311071 257.71657936 280.24496994 347.19875973 254.01049805 425.17016602 C236.28454671 476.04909118 203.9852957 523.92868992 163 559 C161.63101562 560.20269531 161.63101562 560.20269531 160.234375 561.4296875 C97.54260833 616.0729139 13.54392681 642.60793918 -69.07324219 637.78173828 C-153.12645917 631.91636172 -233.63003118 593.81300726 -289.46484375 530.19140625 C-291.68371028 527.49104969 -293.84187988 524.74907849 -296 522 C-296.90482185 520.90528969 -297.81253673 519.81296616 -298.72265625 518.72265625 C-352.64436703 453.65063517 -375.44426444 368.05264843 -368.22631836 284.54638672 C-365.63354477 259.75738116 -360.09164396 235.55065576 -352 212 C-351.68836914 211.08992187 -351.37673828 210.17984375 -351.05566406 209.2421875 C-338.47028449 173.1241458 -318.59127909 136.25155796 -292.16015625 108.30078125 C-290.34375391 106.3661321 -288.61464924 104.39535225 -286.88671875 102.3828125 C-282.39141563 97.22743955 -277.58320199 92.39918915 -272.75 87.5625 C-271.87214844 86.67240234 -270.99429688 85.78230469 -270.08984375 84.86523438 C-264.04270077 78.8048107 -257.72569926 73.29328031 -251 68 C-250.26813477 67.41951904 -249.53626953 66.83903809 -248.78222656 66.2409668 C-218.36986554 42.30047802 -184.78023623 24.16191457 -148 12 C-147.15727539 11.71431152 -146.31455078 11.42862305 -145.44628906 11.13427734 C-99.7115271 -4.25598028 -47.62359858 -7.74213934 0 0 Z M-95 47 C-96.05815918 47.19867676 -97.11631836 47.39735352 -98.20654297 47.60205078 C-148.13087779 57.22089722 -195.37422304 79.60514087 -232.484375 114.63671875 C-234.56434986 116.5907324 -236.68055368 118.42897837 -238.875 120.25 C-249.88667013 129.84228645 -259.31127936 141.31248987 -268 153 C-268.47115234 153.62535645 -268.94230469 154.25071289 -269.42773438 154.89501953 C-296.35104015 190.8317017 -313.51674712 233.65182954 -320 278 C-320.17877686 279.21204102 -320.35755371 280.42408203 -320.54174805 281.67285156 C-322.16679204 293.485799 -322.35786114 305.21490362 -322.3125 317.125 C-322.31067719 318.1188974 -322.30885437 319.1127948 -322.30697632 320.1368103 C-322.26217226 334.64529745 -321.73234073 348.71944466 -319 363 C-318.69047159 364.84489551 -318.38191225 366.68995382 -318.07421875 368.53515625 C-306.74364043 432.34306831 -269.2018124 495.28898698 -216.70654297 533.7421875 C-214.95360856 535.03419295 -213.22810434 536.35744528 -211.50390625 537.6875 C-165.39009273 572.89017608 -107.70642704 591.20803848 -49.9375 591.25 C-48.6800296 591.25101212 -48.6800296 591.25101212 -47.39715576 591.25204468 C15.24746001 591.17237446 75.40841391 569.66531801 124 530 C124.8036499 529.34862061 124.8036499 529.34862061 125.62353516 528.68408203 C139.6946062 517.21011697 152.95943528 504.43616898 164 490 C165.00014564 488.73866549 166.00154612 487.47832541 167.00390625 486.21875 C204.66358694 438.48080921 225.20122651 379.1985276 225.25 318.4375 C225.25067474 317.67432465 225.25134949 316.91114929 225.25204468 316.12484741 C225.16599637 254.28345498 204.03807007 194.07005307 165 146 C164.37617432 145.22172852 164.37617432 145.22172852 163.73974609 144.42773438 C150.90372213 128.51747539 136.25160341 113.20952704 119.65820312 101.20947266 C117.92109591 99.94244835 116.21786053 98.63765463 114.515625 97.32421875 C99.82938426 86.1061979 83.78089434 76.72035685 67 69 C65.8236499 68.45714355 65.8236499 68.45714355 64.62353516 67.90332031 C33.08196294 53.50990883 -1.90600001 43.98063868 -36.7578125 43.796875 C-38.10425087 43.78628555 -38.10425087 43.78628555 -39.47789001 43.77548218 C-67.37198802 43.55879194 -67.37198802 43.55879194 -95 47 Z " fill="#5F3CD8" transform="translate(461,95)"/>
<path d="M0 0 C2.45934956 2.17817392 4.83410727 4.41524566 7.1875 6.70703125 C8.24904297 7.69316406 8.24904297 7.69316406 9.33203125 8.69921875 C21.82699404 20.59690798 30.21791483 37.00409075 34.1875 53.70703125 C34.48527344 54.92261719 34.78304688 56.13820313 35.08984375 57.390625 C38.37542142 72.59057018 37.38216576 88.26354727 37.1875 103.70703125 C17.0575 103.70703125 -3.0725 103.70703125 -23.8125 103.70703125 C-24.1425 93.80703125 -24.4725 83.90703125 -24.8125 73.70703125 C-27.50956034 59.72227393 -32.44481515 48.68766921 -43.8125 39.70703125 C-65.70315657 25.87847666 -93.93211445 25.02710261 -118.67773438 30.20654297 C-130.89474608 33.07077833 -141.67854499 39.15834778 -148.8125 49.70703125 C-154.67147729 60.76772877 -155.35520006 72.78438767 -153.234375 85.05078125 C-149.89586133 95.6126245 -141.3910735 103.5806686 -131.8125 108.70703125 C-116.65072242 116.4292886 -100.50218046 120.17099307 -84.01171875 123.98828125 C9.2490472 145.60785649 9.2490472 145.60785649 34.1875 183.70703125 C41.49608898 195.73311022 45.63501955 209.59575987 46.1875 223.70703125 C46.2390625 224.83753906 46.290625 225.96804688 46.34375 227.1328125 C47.04518013 256.68055666 37.30290704 282.8556528 16.9375 304.39453125 C1.1053371 319.50955785 -18.80969521 329.19613317 -39.8125 334.70703125 C-41.01261719 335.02285156 -42.21273438 335.33867188 -43.44921875 335.6640625 C-86.12189432 345.72509983 -135.0611125 340.54266075 -172.8125 317.70703125 C-177.04535741 314.98915096 -180.96291577 311.94291364 -184.8125 308.70703125 C-185.74320313 307.93875 -186.67390625 307.17046875 -187.6328125 306.37890625 C-209.61293527 287.39885595 -219.78761116 261.88125313 -223.8125 233.70703125 C-223.8125 223.80703125 -223.8125 213.90703125 -223.8125 203.70703125 C-203.6825 203.70703125 -183.5525 203.70703125 -162.8125 203.70703125 C-162.4825 212.61703125 -162.1525 221.52703125 -161.8125 230.70703125 C-158.34143337 248.06236438 -151.9193238 261.37893931 -137.13232422 271.47973633 C-114.2789638 286.24766426 -84.7494047 287.17664141 -58.75 281.92578125 C-44.27956001 278.4860865 -31.38974649 271.85560293 -23 259.33203125 C-16.12261814 247.92717021 -13.81505898 235.07868164 -16.9375 222.01953125 C-20.51292943 210.46174775 -28.31119012 202.92974273 -38.75 197.26953125 C-56.16551145 188.69957177 -75.63633464 184.62506896 -94.46044922 180.45458984 C-126.10335685 173.39773746 -160.49704681 165.13366482 -185.8125 143.70703125 C-187.09640625 142.68222656 -187.09640625 142.68222656 -188.40625 141.63671875 C-204.91750296 127.82638063 -212.97484583 108.73172139 -215.5625 87.70703125 C-215.67480794 86.04206604 -215.75423864 84.37476259 -215.8125 82.70703125 C-215.88984375 80.86818359 -215.88984375 80.86818359 -215.96875 78.9921875 C-216.72397368 52.46221384 -209.60438918 27.77715014 -191.8125 7.70703125 C-191.26078125 7.08441406 -190.7090625 6.46179688 -190.140625 5.8203125 C-171.75048306 -13.66448074 -144.68180739 -22.71858135 -118.8125 -26.29296875 C-117.51054688 -26.47730469 -116.20859375 -26.66164062 -114.8671875 -26.8515625 C-75.72396698 -31.00995503 -31.36664502 -25.57252865 0 0 Z " fill="#5F3CD8" transform="translate(1278.8125,256.29296875)"/>
<path d="M0 0 C0.84304688 0.75023437 1.68609375 1.50046875 2.5546875 2.2734375 C19.42710074 18.12017213 26.4669053 40.21199015 27.27587891 62.88293457 C27.39944932 68.40909922 27.41813626 73.93430323 27.41069031 79.46169281 C27.40614966 83.1278931 27.42038126 86.79362656 27.43908691 90.45977783 C27.48174163 99.54591622 27.49315149 108.63204066 27.50531006 117.71826172 C27.51683813 125.44135972 27.54035596 133.16423877 27.58000183 140.88724518 C27.59354951 144.49350741 27.58940899 148.09947194 27.58459473 151.70574951 C27.59393173 153.91158429 27.60409963 156.11741575 27.61523438 158.32324219 C27.60908615 159.32067444 27.60293793 160.31810669 27.59660339 161.34576416 C27.6434465 166.62600887 27.94254351 170.48269609 31 175 C38.99402805 180.32935203 53.00821606 178.61943886 61 179 C61 196.82 61 214.64 61 233 C53.678125 233.0825 46.35625 233.165 38.8125 233.25 C36.52932861 233.28641602 34.24615723 233.32283203 31.89379883 233.36035156 C16.03943176 233.50811966 2.99058259 232.13424694 -9.1875 221 C-15.98613082 214.00140945 -19.19977833 206.59316955 -19.25 196.8125 C-19.18714296 195.20740059 -19.11158256 193.60244952 -19 192 C-21.64 192 -24.28 192 -27 192 C-27.23589844 192.84820313 -27.47179688 193.69640625 -27.71484375 194.5703125 C-33.39215033 209.72130088 -46.65332097 220.59438383 -60.95898438 227.15869141 C-86.59662696 237.72655221 -119.6948052 235.13941025 -145 225 C-163.65765918 217.11874742 -178.24429602 203.94972496 -186.1796875 185.21484375 C-193.733492 165.61354814 -193.40713757 143.22232704 -185.71484375 123.74609375 C-177.63788896 106.12978288 -162.7484641 94.3072207 -145.03710938 87.21386719 C-128.1492023 80.99244978 -111.35445008 79.54992221 -93.52734375 79.70703125 C-91.623503 79.712644 -89.71965784 79.71690613 -87.81581116 79.71989441 C-82.86587017 79.73121122 -77.91620393 79.76056084 -72.96636963 79.79400635 C-67.89102899 79.82499533 -62.81564286 79.83846061 -57.74023438 79.85351562 C-47.82670387 79.8854466 -37.913375 79.93647827 -28 80 C-28.14984672 76.94647352 -28.30260178 73.89313904 -28.45703125 70.83984375 C-28.49896606 69.97919312 -28.54090088 69.11854248 -28.58410645 68.23181152 C-29.18688242 56.43381602 -31.13828333 44.65009359 -40 36 C-40 35.34 -40 34.68 -40 34 C-40.56847656 33.72027344 -41.13695312 33.44054687 -41.72265625 33.15234375 C-43.20390484 32.40282688 -44.67143452 31.62533212 -46.12109375 30.81640625 C-61.43172519 22.5285265 -79.7939495 21.6007446 -96.4855957 26.09741211 C-107.26816051 29.38823938 -114.99826465 35.51804612 -121 45 C-124.24679533 51.14649451 -126.87991295 57.38215818 -129 64 C-135.50580962 62.65932695 -141.70696913 60.90360815 -147.99609375 58.77734375 C-148.91084976 58.47180069 -149.82560577 58.16625763 -150.76808167 57.85145569 C-152.68390608 57.21062218 -154.59901453 56.56764453 -156.51342773 55.92260742 C-159.45204675 54.93259926 -162.39279836 53.94914958 -165.33398438 52.96679688 C-167.20064697 52.34152226 -169.0671879 51.71588431 -170.93359375 51.08984375 C-171.81373642 50.79504623 -172.69387909 50.50024872 -173.60069275 50.19651794 C-174.41236404 49.92275833 -175.22403534 49.64899872 -176.06030273 49.36694336 C-177.13211037 49.00626015 -177.13211037 49.00626015 -178.22557068 48.63829041 C-180 48 -180 48 -182 47 C-176.96368217 25.17595609 -162.40911313 5.42020184 -143.64770508 -6.58789062 C-103.38514834 -31.24372107 -36.48570135 -33.11408538 0 0 Z M-127.9375 134.875 C-134.43752485 143.16866379 -135.15134987 150.52819879 -134 161 C-131.360161 169.85812642 -125.43263737 176.33301427 -117.4375 180.75 C-100.67662256 188.42151943 -82.06528876 187.39540274 -64.8125 182.00390625 C-50.76383783 176.71736541 -39.53895648 166.90265127 -33.125 153.3125 C-29.59786645 144.88525475 -27.93151834 136.84470885 -27.9765625 127.73828125 C-27.98163818 126.40277222 -27.98163818 126.40277222 -27.98681641 125.0402832 C-27.99116699 124.36698975 -27.99551758 123.69369629 -28 123 C-37.14580533 122.93004301 -46.2915165 122.8769593 -55.43753242 122.84456348 C-59.68582839 122.82900378 -63.93393936 122.80794621 -68.18212891 122.77368164 C-72.29297542 122.74073782 -76.40364562 122.7230744 -80.51461411 122.71536827 C-82.07166183 122.70988683 -83.62870151 122.69918601 -85.18567276 122.68280983 C-100.13730982 122.5320114 -117.08461614 123.18553968 -127.9375 134.875 Z " fill="#5F3CD8" transform="translate(1541,363)"/>
<path d="M0 0 C0.61230469 0.52722656 1.22460938 1.05445313 1.85546875 1.59765625 C21.98958094 20.29703361 33.76135952 50.12736225 35.10772705 77.16322327 C35.16354141 79.46990298 35.19080503 81.77470795 35.203125 84.08203125 C35.20882507 84.93568771 35.21452515 85.78934418 35.22039795 86.66886902 C35.22979683 88.47153507 35.23636145 90.2742179 35.24023438 92.0769043 C35.2498379 94.76709147 35.28086742 97.45647921 35.3125 100.14648438 C35.49467219 129.66193736 28.25218266 158.02259826 9 181 C8.15566406 182.00804687 7.31132813 183.01609375 6.44140625 184.0546875 C-14.00442661 207.7179421 -43.65936909 220.13224611 -74.3125 223.75 C-110.87087225 226.08109372 -148.74969882 219.97423239 -177.3515625 195.3984375 C-202.96553777 172.20230061 -215.76696785 143.40176371 -218 109 C-218.95338573 82.88782425 -217.56629 56.89482834 -206 33 C-205.49855469 31.95714844 -204.99710938 30.91429687 -204.48046875 29.83984375 C-191.11424034 3.57692658 -167.82539709 -15.95661736 -139.9375 -25.3125 C-91.69166859 -40.70073275 -38.61283484 -33.56299041 0 0 Z M-142 39 C-142.55300781 39.51820313 -143.10601563 40.03640625 -143.67578125 40.5703125 C-160.15473809 57.53786375 -160.53276951 82.54948623 -160.2734375 104.56640625 C-159.93580197 123.21822307 -154.10714247 140.31986769 -141 154 C-126.00911301 168.36299643 -106.93741458 173.4985254 -86.6796875 173.21484375 C-71.40564557 172.71441218 -57.9978907 167.23578637 -46 158 C-44.96875 157.2575 -43.9375 156.515 -42.875 155.75 C-28.68645436 142.17834765 -22.17270278 124.10226656 -21.65234375 104.83984375 C-21.59759682 101.83065905 -21.57475968 98.82212913 -21.5625 95.8125 C-21.55623596 95.0881073 -21.54997192 94.3637146 -21.54351807 93.61737061 C-21.42742235 72.34057449 -26.75912274 52.70792968 -41.5625 36.8125 C-55.56550541 23.50647676 -73.84681908 17.84786804 -92.88085938 17.94042969 C-112.0582399 18.47951734 -128.468933 25.54077938 -142 39 Z " fill="#5F3CD8" transform="translate(2022,372)"/>
<path d="M0 0 C0.74894531 0.60457031 1.49789062 1.20914062 2.26953125 1.83203125 C15.08609267 12.55252811 23.51437171 27.73373463 27 44 C9.87375584 50.00150436 -7.57754937 54.94457908 -25 60 C-27.28310162 57.71689838 -27.52749644 56.5149066 -28.3125 53.4375 C-29.83277635 48.12421095 -32.06396689 43.6642045 -35 39 C-35.556875 38.113125 -36.11375 37.22625 -36.6875 36.3125 C-42.18976228 30.81023772 -49.5665991 27.16270431 -57 25 C-57.69996094 24.79503906 -58.39992188 24.59007812 -59.12109375 24.37890625 C-73.03583715 20.97648164 -90.09460603 21.82083897 -103 28.1875 C-107.80893001 31.14822183 -111.85991566 35.50980317 -113.63671875 40.94921875 C-114.78786177 47.44760676 -114.69317117 53.41612887 -111.29296875 59.1953125 C-102.01871947 72.14003506 -82.55855603 74.22611727 -67.98687744 76.89877319 C-63.00347738 77.81681173 -58.03077084 78.78886356 -53.05859375 79.765625 C-51.6058606 80.05085274 -51.6058606 80.05085274 -50.1237793 80.34184265 C-33.64099183 83.62089045 -17.30532806 87.95650325 -2 95 C-1.04609375 95.43570313 -0.0921875 95.87140625 0.890625 96.3203125 C16.0402349 103.89511745 27.26842934 115.55948687 33 131.56640625 C38.70748192 151.1635805 36.97483555 174.01923415 27.328125 192.140625 C25.65292505 194.85355943 23.89558222 197.43713884 22 200 C21.29230469 200.96486328 21.29230469 200.96486328 20.5703125 201.94921875 C5.05365794 221.45461784 -20.83180892 229.42992794 -44.62817383 232.3190918 C-80.26658934 235.91328431 -119.69459537 231.5893636 -148.62109375 208.71826172 C-166.72903198 193.80356321 -176.8226898 174.05682888 -180 151 C-174.22139833 149.46460978 -168.44133599 147.93488528 -162.65991211 146.41015625 C-160.69759711 145.89181497 -158.73567388 145.37198798 -156.77416992 144.85058594 C-153.9377308 144.09689735 -151.09987672 143.34874896 -148.26171875 142.6015625 C-147.39979416 142.3712735 -146.53786957 142.1409845 -145.64982605 141.90371704 C-139.48067619 140.28749866 -133.28716638 139.06361185 -127 138 C-126.63648437 139.18335938 -126.27296875 140.36671875 -125.8984375 141.5859375 C-123.14315743 150.33598856 -120.46063497 158.50783593 -115 166 C-114.56300781 166.6290625 -114.12601563 167.258125 -113.67578125 167.90625 C-105.53980923 178.53663179 -92.45662905 182.97535653 -79.75 185.25 C-63.92332448 187.34387483 -44.70856373 187.35824461 -31 178 C-26.08319877 174.0927321 -22.71441827 170.15173613 -21 164 C-20.1881076 156.65237382 -20.28240809 149.98099259 -25 144 C-37.50938237 131.06031946 -60.89177553 129.27510814 -77.65161133 126.22729492 C-102.02390178 121.75991692 -126.96838183 115.24929491 -147 100 C-148.19496094 99.09701172 -148.19496094 99.09701172 -149.4140625 98.17578125 C-160.35409443 89.20946642 -167.55856072 76.91406557 -170 63 C-171.37870728 41.84207291 -170.13599449 22.3589696 -155.625 5.75 C-154.10200001 4.14870316 -152.56129468 2.56398193 -151 1 C-150.38511719 0.37351562 -149.77023438 -0.25296875 -149.13671875 -0.8984375 C-112.47568142 -35.59689253 -36.72283378 -31.29247019 0 0 Z " fill="#5F3CD8" transform="translate(2271,363)"/>
<path d="M0 0 C5.445 0.04125 10.89 0.0825 16.5 0.125 C16.5 17.945 16.5 35.765 16.5 54.125 C-2.5625 54.4375 -2.5625 54.4375 -8.47680664 54.51293945 C-27.47541637 54.85243318 -46.32062902 57.14222342 -60.5 71.125 C-69.14370608 80.96322976 -72.58668147 92.94482099 -72.65821838 105.88278198 C-72.66315636 106.53719336 -72.66809434 107.19160473 -72.67318195 107.86584675 C-72.68846107 110.04451393 -72.69689135 112.22315186 -72.70532227 114.40185547 C-72.71490834 115.96922561 -72.72491885 117.5365932 -72.73532104 119.10395813 C-72.76229713 123.34931887 -72.78334608 127.59469065 -72.80332303 131.84008932 C-72.82522772 136.28038627 -72.85259443 140.72064948 -72.87937927 145.16091919 C-72.92924563 153.56490993 -72.97420688 161.96891946 -73.01740164 170.37294686 C-73.06682584 179.94245461 -73.12172472 189.51192851 -73.17708123 199.08140349 C-73.29080828 218.76257227 -73.39694478 238.44377225 -73.5 258.125 C-93.63 258.125 -113.76 258.125 -134.5 258.125 C-134.5 173.315 -134.5 88.505 -134.5 1.125 C-114.7 1.125 -94.9 1.125 -74.5 1.125 C-74.5 11.025 -74.5 20.925 -74.5 31.125 C-71.86 31.125 -69.22 31.125 -66.5 31.125 C-66.0359375 29.206875 -66.0359375 29.206875 -65.5625 27.25 C-62.39096801 17.79496331 -54.13674379 10.67970071 -45.5 6.125 C-31.42612534 -0.65380406 -15.26938443 -0.16533542 0 0 Z " fill="#5F3CD8" transform="translate(1768.5,337.875)"/>
</svg>
